<?xml version="1.0" encoding="UTF-8"?>
<svg id="Layer_2" data-name="Layer 2" xmlns="http://www.w3.org/2000/svg" viewBox="0 0 40.36 40.36">
  <defs>
    <style>
      .cls-1 {
        fill: #fff;
        stroke: #231f20;
        stroke-miterlimit: 10;
      }
    </style>
  </defs>
  <g id="Layer_1-2" data-name="Layer 1">
    <path class="cls-1" d="M35.95,15.6h-11.19V4.42c0-2.16-1.75-3.92-3.92-3.92h-1.33c-2.16,0-3.92,1.75-3.92,3.92v11.19H4.42c-2.16,0-3.92,1.75-3.92,3.92v1.33c0,2.16,1.75,3.92,3.92,3.92h11.19v11.19c0,2.16,1.75,3.92,3.92,3.92h1.33c2.16,0,3.92-1.75,3.92-3.92v-11.19h11.19c2.16,0,3.92-1.75,3.92-3.92v-1.33c0-2.16-1.75-3.92-3.92-3.92Z"/>
  </g>
</svg>