<?xml version="1.0" encoding="UTF-8"?>
<svg id="Layer_2" data-name="Layer 2" xmlns="http://www.w3.org/2000/svg" viewBox="0 0 50.81 57.79">
  <defs>
    <style>
      .cls-1 {
        stroke-width: .5px;
      }

      .cls-1, .cls-2 {
        fill: #f05133;
        stroke: #231f20;
        stroke-miterlimit: 10;
      }

      .cls-2 {
        stroke-width: .25px;
      }
    </style>
  </defs>
  <g id="Layer_1-2" data-name="Layer 1">
    <path class="cls-1" d="M39.8,57.54H11.01c-1.98,0-3.83-1.28-4.14-2.91L.36,20.86c-.6-3.1,1.23-5.73,4.11-5.73h41.88c2.88,0,4.7,2.63,4.11,5.73l-6.51,33.76c-.31,1.63-2.16,2.91-4.14,2.91Z"/>
    <path class="cls-1" d="M48.69,12.63H2.12c-1.58,0-2.01-1.47-1.04-3.16l1.48-2.56c.8-1.38,2.45-2.43,3.75-2.43h38.2c1.3,0,2.95,1.05,3.75,2.43l1.48,2.56c.97,1.69.54,3.16-1.04,3.16Z"/>
    <path class="cls-2" d="M31.54,2.83c-.26,1.7-12.01,1.7-12.27,0-.14-.92,3.05-2.71,6.13-2.71s6.27,1.79,6.13,2.71Z"/>
  </g>
</svg>